<svg width="200" height="201" viewBox="0 0 200 201" fill="none" xmlns="http://www.w3.org/2000/svg">
<path d="M94.2361 0.109781C93.1341 0.194545 90.5912 0.448836 88.5569 0.703127C44.9883 5.61942 9.38758 38.8468 1.58932 81.822C-0.529773 93.6042 -0.529773 106.573 1.58932 118.355C8.96376 158.872 41.2587 191.082 81.8606 198.542C93.558 200.661 106.527 200.661 118.309 198.542C158.741 191.167 191.036 158.872 198.411 118.44C200.53 106.658 200.53 93.6889 198.411 81.9915C191.036 41.8135 159.25 9.60332 119.157 1.88982C112.46 0.5336 99.9152 -0.314037 94.2361 0.109781ZM86.8616 50.2051C87.6245 50.629 102.034 60.3768 118.733 71.9047C144.925 89.8746 149.332 93.0956 150.434 94.7061C152.638 97.9271 152.638 102.25 150.434 105.471C149.332 107.082 144.925 110.303 118.733 128.273C102.034 139.8 87.6245 149.548 86.8616 149.972C82.1149 152.43 76.0966 150.481 73.7232 145.649L72.7061 143.53V100.046V56.6472L73.808 54.5281C74.9099 52.2395 77.1986 50.2899 79.7415 49.527C81.691 48.8489 84.9968 49.188 86.8616 50.2051Z" fill="#D4AA7D"/>
</svg>
